<svg xmlns="http://www.w3.org/2000/svg" xmlns:xlink="http://www.w3.org/1999/xlink" width="356" zoomAndPan="magnify" viewBox="0 0 267 472.499986" height="630" preserveAspectRatio="xMidYMid meet" version="1.0"><defs><filter x="0%" y="0%" width="100%" height="100%" id="fd45619156"><feColorMatrix values="0 0 0 0 1 0 0 0 0 1 0 0 0 0 1 0 0 0 1 0" color-interpolation-filters="sRGB"/></filter><clipPath id="364cb1ab7b"><path d="M 0.140625 0 L 266.859375 0 L 266.859375 471.25 L 0.140625 471.25 Z M 0.140625 0 " clip-rule="nonzero"/></clipPath><clipPath id="20c2bb9342"><path d="M 0.140625 2 L 266.859375 2 L 266.859375 472 L 0.140625 472 Z M 0.140625 2 " clip-rule="nonzero"/></clipPath><mask id="b53c67e1e8"><g filter="url(#fd45619156)"><rect x="-26.7" width="320.4" fill="#000000" y="-47.249999" height="566.999983" fill-opacity="0.22"/></g></mask><clipPath id="cc858cdea0"><path d="M 0.140625 0.699219 L 266.769531 0.699219 L 266.769531 470 L 0.140625 470 Z M 0.140625 0.699219 " clip-rule="nonzero"/></clipPath><clipPath id="afb0d9ad2d"><path d="M 232.785156 0.699219 L 34.125 0.699219 L 0.140625 34.683594 L 0.140625 435.578125 L 34.125 469.5625 L 232.785156 469.5625 L 266.769531 435.578125 L 266.769531 34.683594 Z M 232.785156 0.699219 " clip-rule="nonzero"/></clipPath><clipPath id="e1c227339b"><rect x="0" width="267" y="0" height="470"/></clipPath></defs><g clip-path="url(#364cb1ab7b)"><path fill="#4852c6" d="M 0.117188 433.386719 L 0.117188 37.285156 C 12.394531 24.984375 24.6875 12.714844 36.976562 0.425781 L 76.449219 0.425781 L 94.246094 18.21875 L 247.710938 18.21875 L 266.765625 37.285156 L 266.765625 434.28125 L 229.90625 471.140625 L 36.976562 471.140625 L 0.117188 434.28125 Z M 243.78125 451.183594 L 55.667969 451.183594 L 40.027344 466.824219 L 38.769531 466.824219 L 4.4375 432.492188 L 4.4375 39.0625 L 38.769531 4.730469 L 74.683594 4.730469 L 92.480469 22.527344 L 245.945312 22.527344 L 262.484375 39.0625 L 262.484375 432.503906 Z M 18.46875 342.210938 L 15.660156 335.882812 L 9.914062 348.851562 L 21.421875 348.851562 Z M 16.085938 334.550781 L 22.835938 349.78125 L 8.488281 349.78125 L 15.660156 333.597656 Z M 18.46875 359.097656 L 15.660156 352.769531 L 9.914062 365.738281 L 21.421875 365.738281 Z M 16.085938 351.441406 L 22.835938 366.671875 L 8.488281 366.671875 L 15.660156 350.484375 Z M 18.46875 375.996094 L 15.660156 369.671875 L 9.914062 382.640625 L 21.421875 382.640625 Z M 16.085938 368.328125 L 22.835938 383.558594 L 8.488281 383.558594 L 15.660156 367.371094 Z M 18.46875 392.886719 L 15.660156 386.546875 L 9.914062 399.515625 L 21.421875 399.515625 Z M 16.085938 385.214844 L 22.835938 400.445312 L 8.488281 400.445312 L 15.660156 384.261719 Z M 18.46875 409.773438 L 15.660156 403.445312 L 9.914062 416.414062 L 21.421875 416.414062 Z M 16.085938 402.117188 L 22.835938 417.347656 L 8.488281 417.347656 L 15.660156 401.160156 Z M 18.46875 325.320312 L 15.660156 318.996094 L 9.914062 331.964844 L 21.421875 331.964844 Z M 16.085938 317.652344 L 22.835938 332.882812 L 8.488281 332.882812 L 15.660156 316.695312 Z M 247.191406 37.84375 L 260.488281 51.136719 L 260.488281 55.671875 L 247.191406 42.378906 Z M 247.191406 48.476562 L 260.488281 61.769531 L 260.488281 66.308594 L 247.191406 53.011719 Z M 247.191406 59.097656 L 260.488281 72.390625 L 260.488281 76.929688 L 247.191406 63.632812 Z M 247.191406 69.730469 L 260.488281 83.027344 L 260.488281 87.5625 L 247.191406 74.265625 Z M 247.191406 90.257812 L 260.488281 103.554688 L 260.488281 108.089844 L 247.191406 94.796875 Z M 247.191406 100.894531 L 260.488281 114.1875 L 260.488281 118.722656 L 247.191406 105.429688 Z M 247.191406 111.515625 L 260.488281 124.808594 L 260.488281 129.347656 L 247.191406 116.050781 Z M 247.191406 122.148438 L 260.488281 135.441406 L 260.488281 139.980469 L 247.191406 126.683594 Z M 247.191406 79.625 L 260.488281 92.921875 L 260.488281 97.457031 L 247.191406 84.164062 Z M 247.191406 27.207031 L 260.488281 40.503906 L 260.488281 45.039062 L 247.191406 31.746094 Z M 44.140625 13.429688 C 47.101562 13.429688 49.511719 15.835938 49.511719 18.800781 C 49.511719 21.765625 47.101562 24.171875 44.140625 24.171875 C 41.175781 24.171875 38.769531 21.765625 38.769531 18.800781 C 38.769531 15.835938 41.175781 13.429688 44.140625 13.429688 Z M 32.308594 25.792969 C 35.273438 25.792969 37.679688 28.199219 37.679688 31.164062 C 37.679688 34.128906 35.273438 36.535156 32.308594 36.535156 C 29.34375 36.535156 26.9375 34.128906 26.9375 31.164062 C 26.9375 28.199219 29.34375 25.792969 32.308594 25.792969 Z M 19.945312 38.15625 C 22.910156 38.15625 25.316406 40.5625 25.316406 43.527344 C 25.316406 46.492188 22.910156 48.898438 19.945312 48.898438 C 16.980469 48.898438 14.574219 46.492188 14.574219 43.527344 C 14.574219 40.5625 16.980469 38.15625 19.945312 38.15625 Z M 83.054688 2.578125 L 230.472656 2.578125 L 244.203125 15.425781 L 96.785156 15.425781 Z M 83.054688 2.578125 " fill-opacity="1" fill-rule="evenodd"/></g><g clip-path="url(#20c2bb9342)"><g mask="url(#b53c67e1e8)"><g transform="matrix(1, 0, 0, 1, 0.000000000000000028, 2)"><g clip-path="url(#e1c227339b)"><g clip-path="url(#cc858cdea0)"><g clip-path="url(#afb0d9ad2d)"><path fill="#4852c6" d="M 0.140625 0.699219 L 266.769531 0.699219 L 266.769531 469.382812 L 0.140625 469.382812 Z M 0.140625 0.699219 " fill-opacity="1" fill-rule="nonzero"/></g></g></g></g></g></g></svg>