<?xml version="1.0" encoding="UTF-8"?>
<svg data-bbox="0.001 0.001 1123.444 1123.444" height="1500" viewBox="0 0 1125 1125" width="1500" xmlns="http://www.w3.org/2000/svg" data-type="ugc">
    <g>
        <defs>
            <clipPath id="ffbd2766-bd5b-4a24-a0ae-d49eafdc918b">
                <path d="M0 0h1123.465v1123.465H0Zm0 0"/>
            </clipPath>
            <clipPath id="bc72b5f3-abb6-47f1-9b79-9283ca8b347b">
                <path d="M733.84 300.004h139.453v139.453H733.84Zm0 0"/>
            </clipPath>
            <clipPath id="bc328c6d-876c-4ca2-b674-a6f426b14037">
                <path d="M803.566 300.004c-38.507 0-69.726 31.215-69.726 69.726 0 38.508 31.219 69.727 69.726 69.727 38.508 0 69.727-31.219 69.727-69.727 0-38.511-31.219-69.726-69.727-69.726Zm0 0"/>
            </clipPath>
            <clipPath id="0c0e7041-3b87-4930-9800-ad975c04fc80">
                <path d="M415.023 176.219h64.48v64.476h-64.48Zm0 0"/>
            </clipPath>
            <clipPath id="85090836-2e4c-4cb3-83f2-ccb980866bbb">
                <path d="M447.262 176.219c-17.805 0-32.239 14.433-32.239 32.238s14.434 32.238 32.239 32.238c17.808 0 32.242-14.433 32.242-32.238s-14.434-32.238-32.242-32.238Zm0 0"/>
            </clipPath>
            <clipPath id="95084758-3b0e-4cf0-8740-09a1e3470fd1">
                <path d="M428.336 558.45h64.48v64.48h-64.48Zm0 0"/>
            </clipPath>
            <clipPath id="bbe06b7c-3d35-4a2e-8226-5446e1cfb52a">
                <path d="M460.578 558.45c-17.805 0-32.242 14.433-32.242 32.241 0 17.805 14.437 32.239 32.242 32.239s32.238-14.434 32.238-32.239c0-17.808-14.433-32.242-32.238-32.242Zm0 0"/>
            </clipPath>
            <clipPath id="eaf6fb0d-9196-4f59-b7b7-21ae945846d4">
                <path d="M576.273 558.45h64.48v64.48h-64.48Zm0 0"/>
            </clipPath>
            <clipPath id="935dd63f-d9e3-4f27-8765-caa9cf802199">
                <path d="M608.516 558.45c-17.805 0-32.243 14.433-32.243 32.241 0 17.805 14.438 32.239 32.243 32.239 17.804 0 32.238-14.434 32.238-32.239 0-17.808-14.434-32.242-32.238-32.242Zm0 0"/>
            </clipPath>
            <clipPath id="2113e769-a1e6-416d-af5d-7c447a3ac355">
                <path d="M339.41 407.215h64.48v64.48h-64.48Zm0 0"/>
            </clipPath>
            <clipPath id="0998f85b-af1e-43a6-82ba-8729bf9cdf79">
                <path d="M371.652 407.215c-17.804 0-32.242 14.437-32.242 32.242s14.438 32.238 32.242 32.238c17.805 0 32.239-14.433 32.239-32.238s-14.434-32.242-32.239-32.242Zm0 0"/>
            </clipPath>
            <clipPath id="3b70cb99-7d7f-46ff-ae2c-9327a99e7398">
                <path d="M563.855 176.219h64.48v64.476h-64.48Zm0 0"/>
            </clipPath>
            <clipPath id="3760d2ad-7494-4308-9a45-6a78dfd12caa">
                <path d="M596.098 176.219c-17.809 0-32.243 14.433-32.243 32.238s14.434 32.238 32.243 32.238c17.804 0 32.238-14.433 32.238-32.238s-14.434-32.238-32.238-32.238Zm0 0"/>
            </clipPath>
            <clipPath id="180d86db-fbff-4eee-898c-c0b3627f56d7">
                <path d="M694.95 444.238h64.48v64.48h-64.48Zm0 0"/>
            </clipPath>
            <clipPath id="285a6607-77b9-49ed-9624-f2da5c3ff0fa">
                <path d="M727.191 444.238c-17.804 0-32.242 14.438-32.242 32.242 0 17.805 14.438 32.239 32.242 32.239 17.805 0 32.239-14.434 32.239-32.239 0-17.804-14.434-32.242-32.239-32.242Zm0 0"/>
            </clipPath>
            <clipPath id="685bdd1b-aeaa-4b14-b728-93d530390232">
                <path d="M850.195 444.238h64.48v64.48h-64.48Zm0 0"/>
            </clipPath>
            <clipPath id="64d333fb-0010-4ba0-a029-a814bdcc8acc">
                <path d="M882.434 444.238c-17.805 0-32.239 14.438-32.239 32.242 0 17.805 14.434 32.239 32.239 32.239 17.808 0 32.242-14.434 32.242-32.239 0-17.804-14.434-32.242-32.242-32.242Zm0 0"/>
            </clipPath>
            <clipPath id="9f14913f-58f0-4a01-b7a0-311f9deb0a34">
                <path d="M850.195 857.566h64.48v64.477h-64.48Zm0 0"/>
            </clipPath>
            <clipPath id="6929dbc1-9eee-4716-9df4-869d03958dbc">
                <path d="M882.434 857.566c-17.805 0-32.239 14.434-32.239 32.239 0 17.804 14.434 32.238 32.239 32.238 17.808 0 32.242-14.434 32.242-32.238 0-17.805-14.434-32.239-32.242-32.239Zm0 0"/>
            </clipPath>
            <clipPath id="83f1832d-2751-4b87-a4d9-ac7ddc8f65c1">
                <path d="M694.95 857.566h64.48v64.477h-64.48Zm0 0"/>
            </clipPath>
            <clipPath id="76571e80-0b75-4289-b227-d82f896170ec">
                <path d="M727.191 857.566c-17.804 0-32.242 14.434-32.242 32.239 0 17.804 14.438 32.238 32.242 32.238 17.805 0 32.239-14.434 32.239-32.238 0-17.805-14.434-32.239-32.239-32.239Zm0 0"/>
            </clipPath>
            <clipPath id="9fbb5391-5622-40db-be9d-7ad484a8fb5c">
                <path d="M382.785 715.883h64.477v64.48h-64.477Zm0 0"/>
            </clipPath>
            <clipPath id="a5a1be99-c091-47af-ad8c-a91210dada96">
                <path d="M415.023 715.883c-17.804 0-32.238 14.433-32.238 32.238s14.434 32.242 32.238 32.242c17.805 0 32.239-14.437 32.239-32.242s-14.434-32.238-32.239-32.238Zm0 0"/>
            </clipPath>
            <clipPath id="bca29fd6-32b2-4d75-8dfb-42d68decec6f">
                <path d="M347.629 804.426h64.48v64.48h-64.48Zm0 0"/>
            </clipPath>
            <clipPath id="c83794cc-a450-4f3b-931d-d48d3666031a">
                <path d="M379.867 804.426c-17.805 0-32.238 14.433-32.238 32.238s14.433 32.242 32.238 32.242c17.809 0 32.242-14.437 32.242-32.242s-14.433-32.238-32.242-32.238Zm0 0"/>
            </clipPath>
            <clipPath id="cee70cdb-55be-4500-9352-5fa0502e844e">
                <path d="M242.566 804.426c-17.808 0-32.242 14.433-32.242 32.238s14.434 32.242 32.242 32.242c17.805 0 32.239-14.437 32.239-32.242s-14.434-32.238-32.239-32.238Zm0 0"/>
            </clipPath>
            <clipPath id="8ca8c2a9-9cc1-4b3a-b9c1-a7003a672221">
                <path d="M242.566 680.422h64.477v64.48h-64.477Zm0 0"/>
            </clipPath>
            <clipPath id="b59dcb58-856a-479f-bccb-1cc8b841b27e">
                <path d="M274.805 680.422c-17.805 0-32.239 14.433-32.239 32.238s14.434 32.242 32.239 32.242c17.804 0 32.238-14.437 32.238-32.242s-14.434-32.238-32.238-32.238Zm0 0"/>
            </clipPath>
            <clipPath id="d0b3449d-d22e-40b0-98eb-a593342792f1">
                <path d="M695.98 558.45h64.48v64.48h-64.48Zm0 0"/>
            </clipPath>
            <clipPath id="8d22512d-373f-4700-a44f-eb2426e73056">
                <path d="M728.223 558.45c-17.809 0-32.243 14.433-32.243 32.241 0 17.805 14.434 32.239 32.243 32.239 17.804 0 32.238-14.434 32.238-32.239 0-17.808-14.434-32.242-32.238-32.242Zm0 0"/>
            </clipPath>
            <clipPath id="bee503e4-d808-4228-a152-c1cd41d2b3e2">
                <path d="M617.344 715.883h64.48v64.48h-64.48Zm0 0"/>
            </clipPath>
            <clipPath id="af020553-be88-463f-a028-a3bb8681bcc1">
                <path d="M649.582 715.883c-17.805 0-32.238 14.433-32.238 32.238s14.433 32.242 32.238 32.242c17.809 0 32.242-14.437 32.242-32.242s-14.433-32.238-32.242-32.238Zm0 0"/>
            </clipPath>
        </defs>
        <g clip-path="url(#ffbd2766-bd5b-4a24-a0ae-d49eafdc918b)">
            <path d="M1123.445 561.723c0 9.195-.222 18.382-.675 27.562a557.602 557.602 0 0 1-2.028 27.496 560.504 560.504 0 0 1-8.09 54.527 559.554 559.554 0 0 1-13.394 53.473 557.523 557.523 0 0 1-8.649 26.18 557.216 557.216 0 0 1-9.921 25.726 562.313 562.313 0 0 1-23.566 49.832 570.36 570.36 0 0 1-13.59 23.989 566.157 566.157 0 0 1-14.75 23.293 562.026 562.026 0 0 1-15.88 22.539 562.137 562.137 0 0 1-16.96 21.738 562.824 562.824 0 0 1-37.02 40.844 562.824 562.824 0 0 1-40.844 37.02 559.158 559.158 0 0 1-21.738 16.96 562.026 562.026 0 0 1-22.54 15.88 566.157 566.157 0 0 1-23.292 14.75 570.36 570.36 0 0 1-23.988 13.59 562.313 562.313 0 0 1-75.56 33.487 557.523 557.523 0 0 1-26.179 8.649 559.554 559.554 0 0 1-53.473 13.395 560.504 560.504 0 0 1-54.527 8.09 557.602 557.602 0 0 1-27.496 2.027 558.97 558.97 0 0 1-27.562.675c-9.192 0-18.38-.222-27.563-.675a557.955 557.955 0 0 1-27.496-2.028 560.504 560.504 0 0 1-54.527-8.09 560.613 560.613 0 0 1-79.653-22.043 561.507 561.507 0 0 1-122.836-61.828 562.155 562.155 0 0 1-44.277-32.84 561.651 561.651 0 0 1-40.848-37.02 559.2 559.2 0 0 1-19.007-19.968 561.13 561.13 0 0 1-18.012-20.875 562.137 562.137 0 0 1-16.961-21.738 562.015 562.015 0 0 1-67.785-119.652 566.288 566.288 0 0 1-9.922-25.727 557.523 557.523 0 0 1-8.648-26.18 558.17 558.17 0 0 1-7.352-26.57 559.587 559.587 0 0 1-6.043-26.902 565.314 565.314 0 0 1-4.715-27.164 564.836 564.836 0 0 1-3.375-27.364 567.325 567.325 0 0 1-2.027-27.496 562.846 562.846 0 0 1 0-55.125 567.69 567.69 0 0 1 2.027-27.496 564.836 564.836 0 0 1 3.375-27.363 560.647 560.647 0 0 1 10.758-54.066 560.544 560.544 0 0 1 16-52.75 564.366 564.366 0 0 1 9.922-25.723 565.984 565.984 0 0 1 11.172-25.207 562.242 562.242 0 0 1 25.988-48.614 556.855 556.855 0 0 1 14.75-23.293 562.01 562.01 0 0 1 69.855-85.125 562.543 562.543 0 0 1 19.97-19.007 562.01 562.01 0 0 1 88.45-65.598 562.242 562.242 0 0 1 48.613-25.988 565.984 565.984 0 0 1 25.206-11.172 564.366 564.366 0 0 1 25.722-9.922 560.544 560.544 0 0 1 52.75-16 560.647 560.647 0 0 1 54.067-10.758 564.836 564.836 0 0 1 27.363-3.375A567.69 567.69 0 0 1 534.16.676a563.102 563.102 0 0 1 55.125 0 567.325 567.325 0 0 1 27.496 2.027c9.149.902 18.27 2.027 27.364 3.375a565.314 565.314 0 0 1 27.164 4.715 559.587 559.587 0 0 1 26.902 6.043 558.17 558.17 0 0 1 26.57 7.352 555.791 555.791 0 0 1 26.18 8.648 566.288 566.288 0 0 1 25.726 9.922 563.845 563.845 0 0 1 25.204 11.172 562.385 562.385 0 0 1 48.617 25.988 562.015 562.015 0 0 1 67.57 47.586 561.13 561.13 0 0 1 20.875 18.012 559.2 559.2 0 0 1 19.969 19.007 561.651 561.651 0 0 1 53.98 62.582 560.921 560.921 0 0 1 30.629 45.836 565.46 565.46 0 0 1 13.59 23.989 562.17 562.17 0 0 1 23.566 49.832 555.353 555.353 0 0 1 9.922 25.722 560.544 560.544 0 0 1 8.649 26.18 560.613 560.613 0 0 1 13.395 53.473 560.504 560.504 0 0 1 8.09 54.527 557.955 557.955 0 0 1 2.027 27.496c.453 9.184.675 18.371.675 27.563Zm0 0" fill="#ffffff"/>
        </g>
        <path stroke-width="34.746" stroke="#5303a2" d="m279.587 706.196 87.202-273.394" fill="none"/>
        <path stroke-width="34.746" stroke="#5303a2" d="m461.48 597.925-93.527-180.91" fill="none"/>
        <path stroke-width="34.746" stroke="#5303a2" d="M446.914 597.93h173.234" fill="none"/>
        <path stroke-width="34.746" stroke="#5303a2" d="m441.928 208.455 166.589 382.233" fill="none"/>
        <path stroke-width="34.746" stroke="#5303a2" d="M614.843 208.457H436.51" fill="none"/>
        <path stroke-width="34.746" stroke="#5303a2" d="M714.568 476.478 596.088 215.11" fill="none"/>
        <path stroke-width="34.746" stroke="#5303a2" d="M403.851 836.664H236.652" fill="none"/>
        <path stroke-width="34.746" stroke="#5303a2" d="m417.306 735.242-37.464 117.2" fill="none"/>
        <path stroke-width="34.746" stroke="#5303a2" d="M428.336 748.122h232.875" fill="none"/>
        <path stroke-width="34.746" stroke="#5303a2" d="m647.972 736.724 85.856 169.969" fill="none"/>
        <path stroke-width="34.746" stroke="#5303a2" d="M899.301 476.48H745.645" fill="none"/>
        <path stroke-width="34.746" stroke="#5303a2" d="M882.422 906.665V461.39" fill="none"/>
        <g clip-path="url(#bc72b5f3-abb6-47f1-9b79-9283ca8b347b)">
            <g clip-path="url(#bc328c6d-876c-4ca2-b674-a6f426b14037)">
                <path d="M733.84 300.004h139.453v139.453H733.84Zm0 0" fill="#5303a2"/>
            </g>
        </g>
        <g clip-path="url(#0c0e7041-3b87-4930-9800-ad975c04fc80)">
            <g clip-path="url(#85090836-2e4c-4cb3-83f2-ccb980866bbb)">
                <path d="M415.023 176.219h64.48v64.476h-64.48Zm0 0" fill="#5303a2"/>
            </g>
        </g>
        <path stroke-width="34.746" stroke="#5303a2" d="M887.485 889.805H733.83" fill="none"/>
        <path stroke-width="34.746" stroke="#5303a2" d="M727.16 479.242V590.72" fill="none"/>
        <g clip-path="url(#95084758-3b0e-4cf0-8740-09a1e3470fd1)">
            <g clip-path="url(#bbe06b7c-3d35-4a2e-8226-5446e1cfb52a)">
                <path d="M428.336 558.45h64.48v64.48h-64.48Zm0 0" fill="#5303a2"/>
            </g>
        </g>
        <g clip-path="url(#eaf6fb0d-9196-4f59-b7b7-21ae945846d4)">
            <g clip-path="url(#935dd63f-d9e3-4f27-8765-caa9cf802199)">
                <path d="M576.273 558.45h64.48v64.48h-64.48Zm0 0" fill="#5303a2"/>
            </g>
        </g>
        <g clip-path="url(#2113e769-a1e6-416d-af5d-7c447a3ac355)">
            <g clip-path="url(#0998f85b-af1e-43a6-82ba-8729bf9cdf79)">
                <path d="M339.41 407.215h64.48v64.48h-64.48Zm0 0" fill="#5303a2"/>
            </g>
        </g>
        <g clip-path="url(#3b70cb99-7d7f-46ff-ae2c-9327a99e7398)">
            <g clip-path="url(#3760d2ad-7494-4308-9a45-6a78dfd12caa)">
                <path d="M563.855 176.219h64.48v64.476h-64.48Zm0 0" fill="#5303a2"/>
            </g>
        </g>
        <g clip-path="url(#180d86db-fbff-4eee-898c-c0b3627f56d7)">
            <g clip-path="url(#285a6607-77b9-49ed-9624-f2da5c3ff0fa)">
                <path d="M694.95 444.238h64.48v64.48h-64.48Zm0 0" fill="#5303a2"/>
            </g>
        </g>
        <g clip-path="url(#685bdd1b-aeaa-4b14-b728-93d530390232)">
            <g clip-path="url(#64d333fb-0010-4ba0-a029-a814bdcc8acc)">
                <path d="M850.195 444.238h64.48v64.48h-64.48Zm0 0" fill="#5303a2"/>
            </g>
        </g>
        <g clip-path="url(#9f14913f-58f0-4a01-b7a0-311f9deb0a34)">
            <g clip-path="url(#6929dbc1-9eee-4716-9df4-869d03958dbc)">
                <path d="M850.195 857.566h64.48v64.477h-64.48Zm0 0" fill="#5303a2"/>
            </g>
        </g>
        <g clip-path="url(#83f1832d-2751-4b87-a4d9-ac7ddc8f65c1)">
            <g clip-path="url(#76571e80-0b75-4289-b227-d82f896170ec)">
                <path d="M694.95 857.566h64.48v64.477h-64.48Zm0 0" fill="#5303a2"/>
            </g>
        </g>
        <g clip-path="url(#9fbb5391-5622-40db-be9d-7ad484a8fb5c)">
            <g clip-path="url(#a5a1be99-c091-47af-ad8c-a91210dada96)">
                <path d="M382.785 715.883h64.477v64.48h-64.477Zm0 0" fill="#5303a2"/>
            </g>
        </g>
        <g clip-path="url(#bca29fd6-32b2-4d75-8dfb-42d68decec6f)">
            <g clip-path="url(#c83794cc-a450-4f3b-931d-d48d3666031a)">
                <path d="M347.629 804.426h64.48v64.48h-64.48Zm0 0" fill="#5303a2"/>
            </g>
        </g>
        <g clip-path="url(#cee70cdb-55be-4500-9352-5fa0502e844e)">
            <path d="M210.324 804.426h64.48v64.48h-64.48Zm0 0" fill="#5303a2"/>
        </g>
        <g clip-path="url(#8ca8c2a9-9cc1-4b3a-b9c1-a7003a672221)">
            <g clip-path="url(#b59dcb58-856a-479f-bccb-1cc8b841b27e)">
                <path d="M242.566 680.422h64.477v64.48h-64.477Zm0 0" fill="#5303a2"/>
            </g>
        </g>
        <g clip-path="url(#d0b3449d-d22e-40b0-98eb-a593342792f1)">
            <g clip-path="url(#8d22512d-373f-4700-a44f-eb2426e73056)">
                <path d="M695.98 558.45h64.48v64.48h-64.48Zm0 0" fill="#5303a2"/>
            </g>
        </g>
        <g clip-path="url(#bee503e4-d808-4228-a152-c1cd41d2b3e2)">
            <g clip-path="url(#af020553-be88-463f-a028-a3bb8681bcc1)">
                <path d="M617.344 715.883h64.48v64.48h-64.48Zm0 0" fill="#5303a2"/>
            </g>
        </g>
    </g>
</svg>
