<?xml version="1.0" encoding="UTF-8"?>
<svg data-bbox="101.41 96.344 172.18 182.312" height="500" viewBox="0 0 375 375" width="500" xmlns="http://www.w3.org/2000/svg" data-type="ugc">
    <g>
        <defs>
            <clipPath id="f917958f-3eb1-46bd-8974-533578a979dd">
                <path d="M229.383 126.602h34.09v34.09h-34.09Zm0 0"/>
            </clipPath>
            <clipPath id="e9d06635-83b2-41ce-975e-a4ccc139637b">
                <path d="M246.43 126.602c-9.414 0-17.047 7.632-17.047 17.043 0 9.414 7.633 17.046 17.047 17.046 9.41 0 17.043-7.632 17.043-17.046 0-9.41-7.633-17.043-17.043-17.043Zm0 0"/>
            </clipPath>
            <clipPath id="29ae65cb-d8dc-409b-bb12-935d08c0db2c">
                <path d="M151.45 96.344h15.76v15.761h-15.76Zm0 0"/>
            </clipPath>
            <clipPath id="96620d5a-5ad6-4f08-bfc4-189fe42a7732">
                <path d="M159.332 96.344a7.88 7.88 0 0 0-7.883 7.879 7.882 7.882 0 1 0 7.883-7.879Zm0 0"/>
            </clipPath>
            <clipPath id="a62e3dcb-7f6b-4247-a647-1f89cbf53b3d">
                <path d="M154.703 189.777h15.762v15.762h-15.762Zm0 0"/>
            </clipPath>
            <clipPath id="450d4be3-b669-4cc3-98be-ba5656d52e1a">
                <path d="M162.586 189.777a7.882 7.882 0 1 0-.002 15.76 7.882 7.882 0 0 0 .002-15.76Zm0 0"/>
            </clipPath>
            <clipPath id="a7dd4173-b630-47b8-bfd1-41d7e0c843e3">
                <path d="M190.867 189.777h15.762v15.762h-15.762Zm0 0"/>
            </clipPath>
            <clipPath id="bc42887f-3b18-446d-a49d-219aa378f8e7">
                <path d="M198.75 189.777a7.88 7.88 0 0 0-7.883 7.883 7.88 7.88 0 0 0 7.883 7.88 7.879 7.879 0 0 0 7.879-7.88 7.88 7.88 0 0 0-7.879-7.883Zm0 0"/>
            </clipPath>
            <clipPath id="faeabddf-4c28-4003-af31-c9e1b4c06ca9">
                <path d="M132.969 152.809h15.761v15.761h-15.76Zm0 0"/>
            </clipPath>
            <clipPath id="41066dc1-5df8-490e-8d0d-a68805f9bd0a">
                <path d="M140.848 152.809a7.88 7.88 0 0 0-7.88 7.882 7.882 7.882 0 1 0 7.879-7.883Zm0 0"/>
            </clipPath>
            <clipPath id="18811cd6-b1e4-42ea-8523-a8f2b1ba15db">
                <path d="M187.832 96.344h15.762v15.761h-15.762Zm0 0"/>
            </clipPath>
            <clipPath id="92dd70fc-f3d6-49c0-b844-d27604f354be">
                <path d="M195.71 96.344a7.882 7.882 0 1 0 .006 15.76 7.882 7.882 0 0 0-.005-15.76Zm0 0"/>
            </clipPath>
            <clipPath id="b12787f7-c8dd-4ac9-b781-a4a8b12c465e">
                <path d="M219.879 161.86h15.762v15.761h-15.762Zm0 0"/>
            </clipPath>
            <clipPath id="5821f481-2d05-45bb-bc93-3fee17d63f68">
                <path d="M227.758 161.86a7.88 7.88 0 0 0-7.88 7.882 7.882 7.882 0 1 0 7.879-7.883Zm0 0"/>
            </clipPath>
            <clipPath id="35208d18-1aeb-46e6-9446-30d786a4b3d0">
                <path d="M257.828 161.86h15.762v15.761h-15.762Zm0 0"/>
            </clipPath>
            <clipPath id="04be866f-c23b-479c-85ba-8e3fd9d2fd12">
                <path d="M265.707 161.86a7.88 7.88 0 0 0-7.879 7.882 7.882 7.882 0 1 0 7.879-7.883Zm0 0"/>
            </clipPath>
            <clipPath id="b01dd4c6-0160-4407-b3a1-ec3a5a5ebfb7">
                <path d="M257.828 262.895h15.762v15.761h-15.762Zm0 0"/>
            </clipPath>
            <clipPath id="2af4ac3f-7691-43ad-ac86-6ac210833d39">
                <path d="M265.707 262.895a7.882 7.882 0 0 0 0 15.761 7.882 7.882 0 0 0 7.883-7.879 7.885 7.885 0 0 0-7.883-7.882Zm0 0"/>
            </clipPath>
            <clipPath id="cd256e67-a217-45bf-8001-a8018288ed0f">
                <path d="M219.879 262.895h15.762v15.761h-15.762Zm0 0"/>
            </clipPath>
            <clipPath id="29bbe839-f054-414f-be95-4972335c46bb">
                <path d="M227.758 262.895a7.882 7.882 0 0 0 0 15.761 7.882 7.882 0 0 0 7.883-7.879 7.885 7.885 0 0 0-7.883-7.882Zm0 0"/>
            </clipPath>
            <clipPath id="19b48c3e-1c22-469c-9ff2-9b23bc7b1e7c">
                <path d="M200.906 228.262h15.762v15.761h-15.762Zm0 0"/>
            </clipPath>
            <clipPath id="f8acd5ac-e104-411c-b487-b0be745606ce">
                <path d="M208.79 228.262a7.88 7.88 0 0 0-7.884 7.883 7.88 7.88 0 0 0 7.883 7.878 7.879 7.879 0 0 0 7.879-7.878 7.88 7.88 0 0 0-7.879-7.883Zm0 0"/>
            </clipPath>
            <clipPath id="3139a9a8-dfb0-42b2-8260-0426d1defeca">
                <path d="M143.57 228.262h15.762v15.761H143.57Zm0 0"/>
            </clipPath>
            <clipPath id="e70b1b0c-5841-4f37-8348-4ac4eb309373">
                <path d="M151.45 228.262a7.88 7.88 0 0 0-7.88 7.883 7.882 7.882 0 1 0 7.879-7.883Zm0 0"/>
            </clipPath>
            <clipPath id="ce53b3fc-6534-490e-bb68-b9deaa6dcddd">
                <path d="M134.977 249.906h15.761v15.762h-15.761Zm0 0"/>
            </clipPath>
            <clipPath id="01164631-f4cd-4446-924e-005e0dd372e2">
                <path d="M142.855 249.906a7.879 7.879 0 0 0-7.878 7.88 7.88 7.88 0 0 0 7.878 7.882 7.882 7.882 0 1 0 0-15.762Zm0 0"/>
            </clipPath>
            <clipPath id="eb462f0a-0bb2-44d0-941f-d9d72cdaf49e">
                <path d="M101.41 249.906h15.762v15.762H101.41Zm0 0"/>
            </clipPath>
            <clipPath id="806a220d-c645-4e11-a99e-6fd52d6c13a9">
                <path d="M109.293 249.906a7.882 7.882 0 1 0-.002 15.764 7.882 7.882 0 0 0 .002-15.764Zm0 0"/>
            </clipPath>
            <clipPath id="adc5b3ed-fe05-4fd9-b9ba-d1b3fafbd793">
                <path d="M109.293 219.594h15.762v15.761h-15.762Zm0 0"/>
            </clipPath>
            <clipPath id="b0226d50-6ab4-466c-8532-01cdec25c290">
                <path d="M117.172 219.594a7.879 7.879 0 0 0-7.879 7.879 7.88 7.88 0 0 0 7.879 7.882 7.88 7.88 0 0 0 7.883-7.882 7.88 7.88 0 0 0-7.883-7.88Zm0 0"/>
            </clipPath>
            <clipPath id="691617d8-4cf9-4d61-9568-e9105cb24b15">
                <path d="M220.129 189.777h15.762v15.762h-15.762Zm0 0"/>
            </clipPath>
            <clipPath id="c6381d26-663b-4c5a-9e8b-2aae4648a692">
                <path d="M228.012 189.777a7.88 7.88 0 0 0-7.883 7.883 7.88 7.88 0 0 0 7.883 7.88 7.879 7.879 0 0 0 7.879-7.88 7.88 7.88 0 0 0-7.88-7.883Zm0 0"/>
            </clipPath>
        </defs>
        <path stroke-width="8.25" stroke="#ffffff" d="m118.34 225.89 21.317-66.831" fill="none"/>
        <path stroke-width="8.25" stroke="#ffffff" d="m162.805 199.425-22.863-44.222" fill="none"/>
        <path stroke-width="8.25" stroke="#ffffff" d="M159.246 199.43h42.343" fill="none"/>
        <path stroke-width="8.25" stroke="#ffffff" d="m158.023 104.226 40.723 93.433" fill="none"/>
        <path stroke-width="8.25" stroke="#ffffff" d="M200.289 104.222h-43.594" fill="none"/>
        <path stroke-width="8.25" stroke="#ffffff" d="m224.668 169.735-28.965-63.89" fill="none"/>
        <path stroke-width="8.25" stroke="#ffffff" d="M148.722 257.785H107.85" fill="none"/>
        <path stroke-width="8.25" stroke="#ffffff" d="m152.012 232.99-9.16 28.653" fill="none"/>
        <path stroke-width="8.25" stroke="#ffffff" d="M154.703 236.145h56.925" fill="none"/>
        <path stroke-width="8.25" stroke="#ffffff" d="m208.394 233.354 20.989 41.547" fill="none"/>
        <path stroke-width="8.25" stroke="#ffffff" d="M269.832 169.743h-37.563" fill="none"/>
        <path stroke-width="8.25" stroke="#ffffff" d="M265.706 274.902V166.054" fill="none"/>
        <g clip-path="url(#f917958f-3eb1-46bd-8974-533578a979dd)">
            <g clip-path="url(#e9d06635-83b2-41ce-975e-a4ccc139637b)">
                <path d="M229.383 126.602h34.09v34.09h-34.09Zm0 0" fill="#ffffff"/>
            </g>
        </g>
        <g clip-path="url(#29ae65cb-d8dc-409b-bb12-935d08c0db2c)">
            <g clip-path="url(#96620d5a-5ad6-4f08-bfc4-189fe42a7732)">
                <path d="M151.45 96.344h15.76v15.761h-15.76Zm0 0" fill="#ffffff"/>
            </g>
        </g>
        <path stroke-width="8.25" stroke="#ffffff" d="M266.941 270.776h-37.558" fill="none"/>
        <path stroke-width="8.25" stroke="#ffffff" d="M227.758 170.41v27.25" fill="none"/>
        <g clip-path="url(#a62e3dcb-7f6b-4247-a647-1f89cbf53b3d)">
            <g clip-path="url(#450d4be3-b669-4cc3-98be-ba5656d52e1a)">
                <path d="M154.703 189.777h15.762v15.762h-15.762Zm0 0" fill="#ffffff"/>
            </g>
        </g>
        <g clip-path="url(#a7dd4173-b630-47b8-bfd1-41d7e0c843e3)">
            <g clip-path="url(#bc42887f-3b18-446d-a49d-219aa378f8e7)">
                <path d="M190.867 189.777h15.762v15.762h-15.762Zm0 0" fill="#ffffff"/>
            </g>
        </g>
        <g clip-path="url(#faeabddf-4c28-4003-af31-c9e1b4c06ca9)">
            <g clip-path="url(#41066dc1-5df8-490e-8d0d-a68805f9bd0a)">
                <path d="M132.969 152.809h15.761v15.761h-15.76Zm0 0" fill="#ffffff"/>
            </g>
        </g>
        <g clip-path="url(#18811cd6-b1e4-42ea-8523-a8f2b1ba15db)">
            <g clip-path="url(#92dd70fc-f3d6-49c0-b844-d27604f354be)">
                <path d="M187.832 96.344h15.762v15.761h-15.762Zm0 0" fill="#ffffff"/>
            </g>
        </g>
        <g clip-path="url(#b12787f7-c8dd-4ac9-b781-a4a8b12c465e)">
            <g clip-path="url(#5821f481-2d05-45bb-bc93-3fee17d63f68)">
                <path d="M219.879 161.86h15.762v15.761h-15.762Zm0 0" fill="#ffffff"/>
            </g>
        </g>
        <g clip-path="url(#35208d18-1aeb-46e6-9446-30d786a4b3d0)">
            <g clip-path="url(#04be866f-c23b-479c-85ba-8e3fd9d2fd12)">
                <path d="M257.828 161.86h15.762v15.761h-15.762Zm0 0" fill="#ffffff"/>
            </g>
        </g>
        <g clip-path="url(#b01dd4c6-0160-4407-b3a1-ec3a5a5ebfb7)">
            <g clip-path="url(#2af4ac3f-7691-43ad-ac86-6ac210833d39)">
                <path d="M257.828 262.895h15.762v15.761h-15.762Zm0 0" fill="#ffffff"/>
            </g>
        </g>
        <g clip-path="url(#cd256e67-a217-45bf-8001-a8018288ed0f)">
            <g clip-path="url(#29bbe839-f054-414f-be95-4972335c46bb)">
                <path d="M219.879 262.895h15.762v15.761h-15.762Zm0 0" fill="#ffffff"/>
            </g>
        </g>
        <g clip-path="url(#19b48c3e-1c22-469c-9ff2-9b23bc7b1e7c)">
            <g clip-path="url(#f8acd5ac-e104-411c-b487-b0be745606ce)">
                <path d="M200.906 228.262h15.762v15.761h-15.762Zm0 0" fill="#ffffff"/>
            </g>
        </g>
        <g clip-path="url(#3139a9a8-dfb0-42b2-8260-0426d1defeca)">
            <g clip-path="url(#e70b1b0c-5841-4f37-8348-4ac4eb309373)">
                <path d="M143.57 228.262h15.762v15.761H143.57Zm0 0" fill="#ffffff"/>
            </g>
        </g>
        <g clip-path="url(#ce53b3fc-6534-490e-bb68-b9deaa6dcddd)">
            <g clip-path="url(#01164631-f4cd-4446-924e-005e0dd372e2)">
                <path d="M134.977 249.906h15.761v15.762h-15.761Zm0 0" fill="#ffffff"/>
            </g>
        </g>
        <g clip-path="url(#eb462f0a-0bb2-44d0-941f-d9d72cdaf49e)">
            <g clip-path="url(#806a220d-c645-4e11-a99e-6fd52d6c13a9)">
                <path d="M101.41 249.906h15.762v15.762H101.41Zm0 0" fill="#ffffff"/>
            </g>
        </g>
        <g clip-path="url(#adc5b3ed-fe05-4fd9-b9ba-d1b3fafbd793)">
            <g clip-path="url(#b0226d50-6ab4-466c-8532-01cdec25c290)">
                <path d="M109.293 219.594h15.762v15.761h-15.762Zm0 0" fill="#ffffff"/>
            </g>
        </g>
        <g clip-path="url(#691617d8-4cf9-4d61-9568-e9105cb24b15)">
            <g clip-path="url(#c6381d26-663b-4c5a-9e8b-2aae4648a692)">
                <path d="M220.129 189.777h15.762v15.762h-15.762Zm0 0" fill="#ffffff"/>
            </g>
        </g>
    </g>
</svg>
