<?xml version="1.0" encoding="UTF-8"?>
<svg data-bbox="10.312 119.215 353.012 136.57" height="500" viewBox="0 0 375 375" width="500" xmlns="http://www.w3.org/2000/svg" data-type="ugc">
    <g>
        <defs>
            <clipPath id="259becf5-355f-4042-afa5-46857e5ec6ea">
                <path d="M106.176 141.883h25.535v25.535h-25.535Zm0 0"/>
            </clipPath>
            <clipPath id="d21fd903-86f8-43f3-913e-8daca7ec9277">
                <path d="M118.941 141.883c-7.05 0-12.765 5.715-12.765 12.765 0 7.051 5.715 12.77 12.765 12.77 7.051 0 12.77-5.719 12.77-12.77 0-7.05-5.719-12.765-12.77-12.765Zm0 0"/>
            </clipPath>
            <clipPath id="d5316ef3-173f-48ad-bb8a-900dee62b240">
                <path d="M47.793 119.215h11.809v11.805H47.793Zm0 0"/>
            </clipPath>
            <clipPath id="dc59df50-4f41-4101-a8a1-4bda4e432add">
                <path d="M53.7 119.215a5.903 5.903 0 1 0 0 11.805 5.902 5.902 0 0 0 0-11.805Zm0 0"/>
            </clipPath>
            <clipPath id="8f6b3297-dc09-40d2-a580-f833f242f1cb">
                <path d="M50.23 189.207h11.81v11.805H50.23Zm0 0"/>
            </clipPath>
            <clipPath id="91193f15-53c9-4026-8667-c6c39ace91c0">
                <path d="M56.137 189.207a5.903 5.903 0 1 0 0 11.805 5.902 5.902 0 0 0 0-11.805Zm0 0"/>
            </clipPath>
            <clipPath id="39f35f36-819d-4240-9ac6-75a3caa42037">
                <path d="M77.32 189.207h11.81v11.805H77.32Zm0 0"/>
            </clipPath>
            <clipPath id="d50b3789-9e93-4902-8016-31fa13217c78">
                <path d="M83.227 189.207a5.903 5.903 0 1 0 0 11.805 5.902 5.902 0 0 0 0-11.805Zm0 0"/>
            </clipPath>
            <clipPath id="60ba3ae7-464a-4207-b809-bb3306e369b3">
                <path d="M33.95 161.512h11.808v11.808H33.949Zm0 0"/>
            </clipPath>
            <clipPath id="01263c66-c2a1-4673-a2b5-8a63a9a2c5a8">
                <path d="M39.852 161.512a5.905 5.905 0 1 0 .005 11.807 5.905 5.905 0 0 0-.005-11.807Zm0 0"/>
            </clipPath>
            <clipPath id="7649f510-aa24-44cd-b11b-402b5228b704">
                <path d="M75.047 119.215h11.808v11.805H75.047Zm0 0"/>
            </clipPath>
            <clipPath id="4be8487d-3604-4ce2-a306-e4282eb62f58">
                <path d="M80.953 119.215a5.903 5.903 0 1 0 0 11.805 5.902 5.902 0 0 0 0-11.805Zm0 0"/>
            </clipPath>
            <clipPath id="92b1180e-c73a-4872-a47b-35b2b79f3bb7">
                <path d="M99.055 168.293h11.804v11.809H99.055Zm0 0"/>
            </clipPath>
            <clipPath id="66dbfdb7-2a75-4ccd-8bdb-e4a8e31f74bf">
                <path d="M104.957 168.293a5.902 5.902 0 0 0-5.902 5.902 5.903 5.903 0 1 0 11.804 0 5.902 5.902 0 0 0-5.902-5.902Zm0 0"/>
            </clipPath>
            <clipPath id="4ff23d81-56ba-4a33-9570-d212a94cb794">
                <path d="M127.48 168.293h11.81v11.809h-11.81Zm0 0"/>
            </clipPath>
            <clipPath id="89fb0b33-847d-43a1-afa5-5e0cccee825f">
                <path d="M133.383 168.293a5.905 5.905 0 1 0 .005 11.81 5.905 5.905 0 0 0-.005-11.81Zm0 0"/>
            </clipPath>
            <clipPath id="24fda461-b83b-4f6c-94af-7793e729cd22">
                <path d="M127.48 243.98h11.81v11.805h-11.81Zm0 0"/>
            </clipPath>
            <clipPath id="3b671cb3-c8b6-48ff-8214-bd6cf753f542">
                <path d="M133.383 243.98a5.902 5.902 0 0 0 0 11.805 5.903 5.903 0 1 0 0-11.805Zm0 0"/>
            </clipPath>
            <clipPath id="106aaa97-cfb0-40b2-b02f-1fa8d2525f9e">
                <path d="M99.055 243.98h11.804v11.805H99.055Zm0 0"/>
            </clipPath>
            <clipPath id="5f26d62f-e8e8-4bf8-9641-82e1c80c91fc">
                <path d="M104.957 243.98a5.9 5.9 0 0 0-5.902 5.903 5.9 5.9 0 0 0 5.902 5.902 5.9 5.9 0 0 0 5.902-5.902 5.9 5.9 0 0 0-5.902-5.903Zm0 0"/>
            </clipPath>
            <clipPath id="89898114-312a-447b-9151-83ecfb5b8235">
                <path d="M84.844 218.035h11.804v11.805H84.844Zm0 0"/>
            </clipPath>
            <clipPath id="6fdec439-5ad6-4e74-bb86-338b35dcc766">
                <path d="M90.746 218.035a5.9 5.9 0 0 0-5.902 5.903 5.9 5.9 0 0 0 5.902 5.902 5.9 5.9 0 0 0 5.902-5.903 5.9 5.9 0 0 0-5.902-5.902Zm0 0"/>
            </clipPath>
            <clipPath id="d5fb23a8-39d6-40a8-b975-590a3c2513f3">
                <path d="M41.89 218.035H53.7v11.805H41.89Zm0 0"/>
            </clipPath>
            <clipPath id="a52a2c4b-f2d5-4ab5-b2b9-82375fa7e351">
                <path d="M47.793 218.035a5.902 5.902 0 0 0 0 11.805 5.903 5.903 0 1 0 0-11.805Zm0 0"/>
            </clipPath>
            <clipPath id="eed01dff-723c-4880-8e93-ef691e908c15">
                <path d="M35.453 234.246h11.809v11.809H35.453Zm0 0"/>
            </clipPath>
            <clipPath id="775b0914-9e61-4328-a3f7-34c7e1c8455b">
                <path d="M41.355 234.246a5.905 5.905 0 1 0 .005 11.807 5.905 5.905 0 0 0-.005-11.807Zm0 0"/>
            </clipPath>
            <clipPath id="1404676c-f789-4a4b-ba0d-028c0967b02a">
                <path d="M10.313 234.246h11.804v11.809H10.312Zm0 0"/>
            </clipPath>
            <clipPath id="37c1ef33-f58b-4cc0-9859-b656409e2519">
                <path d="M16.215 234.246a5.903 5.903 0 0 0-5.902 5.906 5.902 5.902 0 0 0 11.804 0 5.903 5.903 0 0 0-5.902-5.906Zm0 0"/>
            </clipPath>
            <clipPath id="5af44136-f551-4971-8367-16e1e2a65a54">
                <path d="M16.215 211.543h11.808v11.805H16.215Zm0 0"/>
            </clipPath>
            <clipPath id="e7bc47e0-8825-41c1-876d-b8265774ddfd">
                <path d="M22.117 211.543a5.902 5.902 0 0 0 0 11.805 5.903 5.903 0 1 0 0-11.805Zm0 0"/>
            </clipPath>
            <clipPath id="3b3ccb15-a5bd-4ec3-8543-e16c3c52c31e">
                <path d="M99.242 189.207h11.805v11.805H99.242Zm0 0"/>
            </clipPath>
            <clipPath id="c45acb58-e260-488a-a826-f40261581c89">
                <path d="M105.145 189.207a5.902 5.902 0 1 0 0 11.805 5.902 5.902 0 0 0 0-11.805Zm0 0"/>
            </clipPath>
        </defs>
        <path stroke-width="6.18" stroke="#5303a2" d="m22.993 216.258 15.969-50.063" fill="none"/>
        <path stroke-width="6.18" stroke="#5303a2" d="m56.3 196.434-17.124-33.125" fill="none"/>
        <path stroke-width="6.18" stroke="#5303a2" d="M53.633 196.438h31.722" fill="none"/>
        <path stroke-width="6.18" stroke="#5303a2" d="m52.718 125.12 30.504 69.992" fill="none"/>
        <path stroke-width="6.18" stroke="#5303a2" d="M84.38 125.117H51.724" fill="none"/>
        <path stroke-width="6.18" stroke="#5303a2" d="m102.64 174.191-21.695-47.86" fill="none"/>
        <path stroke-width="6.18" stroke="#5303a2" d="M45.75 240.15H15.133" fill="none"/>
        <path stroke-width="6.18" stroke="#5303a2" d="m48.213 221.58-6.86 21.46" fill="none"/>
        <path stroke-width="6.18" stroke="#5303a2" d="M50.23 223.937h42.645" fill="none"/>
        <path stroke-width="6.18" stroke="#5303a2" d="m90.452 221.846 15.719 31.125" fill="none"/>
        <path stroke-width="6.18" stroke="#5303a2" d="M136.472 174.195h-28.137" fill="none"/>
        <path stroke-width="6.18" stroke="#5303a2" d="M133.383 252.972v-81.538" fill="none"/>
        <g clip-path="url(#259becf5-355f-4042-afa5-46857e5ec6ea)">
            <g clip-path="url(#d21fd903-86f8-43f3-913e-8daca7ec9277)">
                <path d="M106.176 141.883h25.535v25.535h-25.535Zm0 0" fill="#5303a2"/>
            </g>
        </g>
        <g clip-path="url(#d5316ef3-173f-48ad-bb8a-900dee62b240)">
            <g clip-path="url(#dc59df50-4f41-4101-a8a1-4bda4e432add)">
                <path d="M47.793 119.215h11.809v11.805H47.793Zm0 0" fill="#5303a2"/>
            </g>
        </g>
        <path stroke-width="6.18" stroke="#5303a2" d="M134.308 249.883H106.17" fill="none"/>
        <path stroke-width="6.18" stroke="#5303a2" d="M104.957 174.7v20.414" fill="none"/>
        <g clip-path="url(#8f6b3297-dc09-40d2-a580-f833f242f1cb)">
            <g clip-path="url(#91193f15-53c9-4026-8667-c6c39ace91c0)">
                <path d="M50.23 189.207h11.81v11.805H50.23Zm0 0" fill="#5303a2"/>
            </g>
        </g>
        <g clip-path="url(#39f35f36-819d-4240-9ac6-75a3caa42037)">
            <g clip-path="url(#d50b3789-9e93-4902-8016-31fa13217c78)">
                <path d="M77.32 189.207h11.81v11.805H77.32Zm0 0" fill="#5303a2"/>
            </g>
        </g>
        <g clip-path="url(#60ba3ae7-464a-4207-b809-bb3306e369b3)">
            <g clip-path="url(#01263c66-c2a1-4673-a2b5-8a63a9a2c5a8)">
                <path d="M33.95 161.512h11.808v11.808H33.949Zm0 0" fill="#5303a2"/>
            </g>
        </g>
        <g clip-path="url(#7649f510-aa24-44cd-b11b-402b5228b704)">
            <g clip-path="url(#4be8487d-3604-4ce2-a306-e4282eb62f58)">
                <path d="M75.047 119.215h11.808v11.805H75.047Zm0 0" fill="#5303a2"/>
            </g>
        </g>
        <g clip-path="url(#92b1180e-c73a-4872-a47b-35b2b79f3bb7)">
            <g clip-path="url(#66dbfdb7-2a75-4ccd-8bdb-e4a8e31f74bf)">
                <path d="M99.055 168.293h11.804v11.809H99.055Zm0 0" fill="#5303a2"/>
            </g>
        </g>
        <g clip-path="url(#4ff23d81-56ba-4a33-9570-d212a94cb794)">
            <g clip-path="url(#89fb0b33-847d-43a1-afa5-5e0cccee825f)">
                <path d="M127.48 168.293h11.81v11.809h-11.81Zm0 0" fill="#5303a2"/>
            </g>
        </g>
        <g clip-path="url(#24fda461-b83b-4f6c-94af-7793e729cd22)">
            <g clip-path="url(#3b671cb3-c8b6-48ff-8214-bd6cf753f542)">
                <path d="M127.48 243.98h11.81v11.805h-11.81Zm0 0" fill="#5303a2"/>
            </g>
        </g>
        <g clip-path="url(#106aaa97-cfb0-40b2-b02f-1fa8d2525f9e)">
            <g clip-path="url(#5f26d62f-e8e8-4bf8-9641-82e1c80c91fc)">
                <path d="M99.055 243.98h11.804v11.805H99.055Zm0 0" fill="#5303a2"/>
            </g>
        </g>
        <g clip-path="url(#89898114-312a-447b-9151-83ecfb5b8235)">
            <g clip-path="url(#6fdec439-5ad6-4e74-bb86-338b35dcc766)">
                <path d="M84.844 218.035h11.804v11.805H84.844Zm0 0" fill="#5303a2"/>
            </g>
        </g>
        <g clip-path="url(#d5fb23a8-39d6-40a8-b975-590a3c2513f3)">
            <g clip-path="url(#a52a2c4b-f2d5-4ab5-b2b9-82375fa7e351)">
                <path d="M41.89 218.035H53.7v11.805H41.89Zm0 0" fill="#5303a2"/>
            </g>
        </g>
        <g clip-path="url(#eed01dff-723c-4880-8e93-ef691e908c15)">
            <g clip-path="url(#775b0914-9e61-4328-a3f7-34c7e1c8455b)">
                <path d="M35.453 234.246h11.809v11.809H35.453Zm0 0" fill="#5303a2"/>
            </g>
        </g>
        <g clip-path="url(#1404676c-f789-4a4b-ba0d-028c0967b02a)">
            <g clip-path="url(#37c1ef33-f58b-4cc0-9859-b656409e2519)">
                <path d="M10.313 234.246h11.804v11.809H10.312Zm0 0" fill="#5303a2"/>
            </g>
        </g>
        <g clip-path="url(#5af44136-f551-4971-8367-16e1e2a65a54)">
            <g clip-path="url(#e7bc47e0-8825-41c1-876d-b8265774ddfd)">
                <path d="M16.215 211.543h11.808v11.805H16.215Zm0 0" fill="#5303a2"/>
            </g>
        </g>
        <g clip-path="url(#3b3ccb15-a5bd-4ec3-8543-e16c3c52c31e)">
            <g clip-path="url(#c45acb58-e260-488a-a826-f40261581c89)">
                <path d="M99.242 189.207h11.805v11.805H99.242Zm0 0" fill="#5303a2"/>
            </g>
        </g>
        <path d="M214.92 199.33H182.5l-6.188 14.968h-16.547l31.11-69.828h15.969l31.218 69.828h-16.953Zm-5.093-12.266-11.063-26.735-11.078 26.735Zm0 0" fill="#360aa2"/>
        <path d="M245.335 144.47h16.156v69.828h-16.156Zm0 0" fill="#360aa2"/>
        <path d="M278.05 144.47h16.155v69.828H278.05Zm0 0" fill="#360aa2"/>
        <path d="M333.7 215.501c-5.524 0-10.86-.75-16.016-2.25-5.148-1.5-9.281-3.441-12.406-5.828l5.484-12.172c2.989 2.188 6.547 3.95 10.672 5.281 4.125 1.336 8.25 2 12.375 2 4.582 0 7.969-.68 10.156-2.047 2.196-1.363 3.297-3.175 3.297-5.437 0-1.664-.652-3.047-1.953-4.14-1.293-1.094-2.953-1.973-4.984-2.641-2.024-.664-4.762-1.399-8.219-2.203-5.324-1.258-9.684-2.52-13.078-3.782-3.387-1.27-6.293-3.3-8.719-6.093-2.43-2.79-3.64-6.516-3.64-11.172 0-4.051 1.093-7.723 3.28-11.016 2.196-3.289 5.509-5.898 9.938-7.828 4.426-1.926 9.828-2.89 16.203-2.89 4.457 0 8.813.53 13.063 1.593 4.258 1.063 7.988 2.59 11.187 4.578l-4.984 12.281c-6.46-3.656-12.914-5.484-19.36-5.484-4.523 0-7.867.73-10.03 2.188-2.157 1.46-3.235 3.386-3.235 5.78 0 2.4 1.242 4.18 3.734 5.345 2.5 1.156 6.305 2.304 11.422 3.437 5.32 1.262 9.676 2.527 13.063 3.797 3.394 1.262 6.304 3.258 8.734 5.984 2.426 2.72 3.64 6.407 3.64 11.063 0 3.992-1.116 7.633-3.343 10.922-2.219 3.293-5.559 5.906-10.016 7.844-4.46 1.925-9.882 2.89-16.265 2.89Zm0 0" fill="#360aa2"/>
    </g>
</svg>
